<svg id="Layer_1" enable-background="new 0 0 27 27" height="512" viewBox="0 0 27 27" width="512" xmlns="http://www.w3.org/2000/svg"><g id="_x36_" fill="white"><path d="m15.7800064 14.229908h-4.5599976c-.539978 0-.960022.4400024-.960022.9699707v9.1000366c0 .539978.4200439.9699707.960022.9699707h4.5599976c.5299683 0 .960022-.4299927.960022-.9699707v-9.1000366c0-.5299683-.4300537-.9699707-.960022-.9699707zm-2.2800293 4.2399902c-.5499878 0-1-.4500122-1-1s.4500122-.9899902 1-.9899902c.5500488 0 1 .4400024 1 .9899902s-.4499512 1-1 1z"/><g><path d="m24.5400162 16.7499275h-4.5599976c-.5400391 0-.960022.4299927-.960022.9599609v6.5900269c0 .539978.4199829.9699707.960022.9699707h4.5599976c.5299683 0 .9599609-.4299927.9599609-.9699707v-6.5900269c0-.5299682-.4299927-.9599609-.9599609-.9599609zm-2.2800293 4.1299439c-.5499878 0-1-.4400024-1-1 0-.539978.4500122-.9899902 1-.9899902s1 .4500122 1 .9899902c0 .5599975-.4500122 1-1 1z"/></g><g><path d="m7.0199966 18.0098763h-4.5599975c-.5299683 0-.960022.4400024-.960022.9700317v5.3200073c0 .539978.4300537.9699707.960022.9699707h4.5599976c.5300293 0 .960022-.4299927.960022-.9699707v-5.3200073c-.0000001-.5300293-.4299928-.9700317-.9600221-.9700317zm-2.2799682 4.1400146c-.5500488 0-1-.4500122-1-1s.4499512-1 1-1c.5499878 0 1 .4500122 1 1s-.4500122 1-1 1z"/></g><g><g><g><path d="m18.1413822 6.5155182-1.2134628 1.1840763.2837753 1.67344c.0881004.5088949-.1174278 1.0079346-.5284271 1.3015642-.4207935.3033657-.9590759.3424883-1.4091969.0978365l-1.4875021-.7926693-1.5070333.8024654c-.4945965.2472229-1.0100718.1899242-1.3994017-.0978365-.4208536-.3034258-.6263227-.8024654-.5382814-1.3015652l.2838345-1.6832352-1.2134638-1.1840762c-.3620796-.352344-.4893036-.8807707-.3327522-1.3602786.1565503-.4893036.5676088-.8317924 1.0667075-.9100976l1.683176-.2446518.7633429-1.5364203c.2250605-.450181.6849766-.7339555 1.1938715-.7339555s.968812.2837745 1.1939325.7437509l.7436905 1.5266249 1.6832352.2446518c.4990997.0783052.910099.420794 1.0764446.9100976.1566105.4795079.0195923 1.0079346-.3424892 1.3602786z"/></g></g></g><g><g><g><path d="m8.3760729 11.8076868-.9141174.8919792.2137709 1.260624c.0663676.383357-.08846.7592897-.3980703.980485-.3169894.228529-.7224836.2580004-1.0615654.0737009l-1.120554-.5971279-1.1352675.6045074c-.3725858.1862364-.7608998.1430721-1.0541866-.0737019-.3170342-.2285738-.471817-.6045065-.4054945-.980485l.2138159-1.2680025-.914117-.8919792c-.2727593-.2654257-.3685986-.663496-.2506669-1.0247145.1179317-.3685989.4275869-.6266003.8035648-.6855888l1.2679575-.1842985.5750351-1.1574049c.1695409-.3391275.5160022-.5528984.8993592-.5528984.3833566 0 .7298179.2137709.8994036.560277l.5602321 1.1500263 1.2680025.1842985c.375978.0589886.6855874.3169899.8108993.6855888.1179762.3612185.0147581.7592888-.2580013 1.0247145z"/></g></g></g><g><g><g><path d="m25.1938 11.8076868-.9141178.8919792.2137718 1.260624c.0663681.383357-.088459.7592897-.3980694.980485-.3169899.228529-.7224846.2580004-1.0615673.0737009l-1.120554-.5971279-1.1352673.6045074c-.3725853.1862364-.7608986.1430721-1.0541859-.0737019-.3170338-.2285738-.471817-.6045065-.4054947-.980485l.2138157-1.2680025-.9141159-.8919792c-.2727604-.2654257-.3685989-.663496-.2506676-1.0247145.1179314-.3685989.4275875-.6266003.8035641-.6855888l1.2679577-.1842985.5750351-1.1574049c.1695423-.3391275.5160027-.5528984.8993587-.5528984.383358 0 .7298183.2137709.8994045.560277l.5602323 1.1500263 1.2680016.1842985c.3759785.0589886.6855888.3169899.8108997.6855888.1179771.3612185.0147591.7592888-.2580013 1.0247145z"/></g></g></g></g></svg>