<svg xmlns="http://www.w3.org/2000/svg" width="192" height="192" viewBox="0 0 192 192">
  <defs>
    <linearGradient id="bg" x1="0%" y1="0%" x2="100%" y2="100%">
      <stop offset="0%" stop-color="#F59E0B"/>
      <stop offset="100%" stop-color="#29A38B"/>
    </linearGradient>
  </defs>
  <rect width="192" height="192" rx="32" fill="url(#bg)"/>
  <g transform="translate(96,96) scale(4.5) translate(-13.5,-13.5)" fill="white">
    <path d="m15.78 14.23h-4.56c-.54 0-.96.44-.96.97v9.1c0 .54.42.97.96.97h4.56c.53 0 .96-.43.96-.97v-9.1c0-.53-.43-.97-.96-.97zm-2.28 4.24c-.55 0-1-.45-1-1s.45-.99 1-.99c.55 0 1 .44 1 .99s-.45 1-1 1z"/>
    <path d="m24.54 16.75h-4.56c-.54 0-.96.43-.96.96v6.59c0 .54.42.97.96.97h4.56c.53 0 .96-.43.96-.97v-6.59c0-.53-.43-.96-.96-.96zm-2.28 4.13c-.55 0-1-.44-1-1 0-.54.45-.99 1-.99s1 .45 1 .99c0 .56-.45 1-1 1z"/>
    <path d="m7.02 18.01h-4.56c-.53 0-.96.44-.96.97v5.32c0 .54.43.97.96.97h4.56c.53 0 .96-.43.96-.97v-5.32c0-.53-.43-.97-.96-.97zm-2.28 4.14c-.55 0-1-.45-1-1s.45-1 1-1c.55 0 1 .45 1 1s-.45 1-1 1z"/>
    <path d="m18.14 6.52-1.21 1.18.28 1.67c.09.51-.12 1.01-.53 1.3-.42.3-.96.34-1.41.1l-1.49-.79-1.51.8c-.49.25-1.01.19-1.4-.1-.42-.3-.63-.8-.54-1.3l.28-1.68-1.21-1.18c-.36-.35-.49-.88-.33-1.36.16-.49.57-.83 1.07-.91l1.68-.24.76-1.54c.23-.45.69-.73 1.19-.73s.97.28 1.19.74l.74 1.53 1.68.24c.5.08.91.42 1.08.91.16.48.02 1.01-.34 1.36z"/>
    <path d="m8.38 11.81-.91.89.21 1.26c.07.38-.09.76-.4.98-.32.23-.72.26-1.06.07l-1.12-.6-1.14.6c-.37.19-.76.14-1.05-.07-.32-.23-.47-.6-.41-.98l.21-1.27-.91-.89c-.27-.27-.37-.66-.25-1.02.12-.37.43-.63.8-.69l1.27-.18.58-1.16c.17-.34.52-.55.9-.55.38 0 .73.21.9.56l.56 1.15 1.27.18c.38.06.69.32.81.69.12.36.01.76-.26 1.02z"/>
    <path d="m25.19 11.81-.91.89.21 1.26c.07.38-.09.76-.4.98-.32.23-.72.26-1.06.07l-1.12-.6-1.14.6c-.37.19-.76.14-1.05-.07-.32-.23-.47-.6-.41-.98l.21-1.27-.91-.89c-.27-.27-.37-.66-.25-1.02.12-.37.43-.63.8-.69l1.27-.18.58-1.16c.17-.34.52-.55.9-.55.38 0 .73.21.9.56l.56 1.15 1.27.18c.38.06.69.32.81.69.12.36.01.76-.26 1.02z"/>
  </g>
</svg>